<svg xmlns="http://www.w3.org/2000/svg" xmlns:xlink="http://www.w3.org/1999/xlink" width="170.121" height="94.333" viewBox="0 0 170.121 94.333">
  <defs>
    <clipPath id="clip-path">
      <rect id="Rectangle_94" data-name="Rectangle 94" width="170.121" height="94.333" fill="none"/>
    </clipPath>
  </defs>
  <g id="Groupe_1" data-name="Groupe 1" transform="translate(0 0)">
    <g id="Groupe_3" data-name="Groupe 3" transform="translate(0 0)" clip-path="url(#clip-path)">
      <path id="Tracé_1" data-name="Tracé 1" d="M37.052,66.156c-1.843,0-2.388-2.267-2.967-4.663a10.682,10.682,0,0,0-1.185-3.43c-.318-.389-.7-.876-1.144-1.436-2.094-2.654-6.447-8.182-8.874-8.482a5.91,5.91,0,0,1-4.851-4.053,3.348,3.348,0,0,1,.919-3.651l17.557-14.59a5.694,5.694,0,0,1,3.843-1.618,5.856,5.856,0,0,1,4.728,2.649,5.3,5.3,0,0,1,.792,4.836c-1.486,3.925.835,6.718,3.075,9.415,1.832,2.206,3.562,4.284,2.615,6.694-2.634,6.718-9.525,14.255-12.365,17.179a3.078,3.078,0,0,1-2.143,1.148ZM40.35,26.2a3.718,3.718,0,0,0-2.53,1.116c-.011.009-.024.024-.039.035l-17.575,14.6a1.492,1.492,0,0,0-.29,1.587,3.936,3.936,0,0,0,3.2,2.658c2.987.363,6.668,4.752,10.18,9.216.439.549.811,1.032,1.12,1.4A11.263,11.263,0,0,1,36,61.035c.24,1,.683,2.831,1.086,3.149a2.022,2.022,0,0,0,.707-.545C40.547,60.8,47.23,53.5,49.736,47.106c.5-1.257-.551-2.613-2.3-4.717-2.357-2.84-5.292-6.374-3.4-11.365A3.344,3.344,0,0,0,43.464,28a3.932,3.932,0,0,0-3.11-1.8Z" transform="translate(20.755 28.178)" fill="#f4f2ed" fill-rule="evenodd"/>
      <path id="Tracé_2" data-name="Tracé 2" d="M33.48,46.512a4.151,4.151,0,0,1-3.4-1.743l-6-8.521a3.959,3.959,0,0,1,1.047-5.589,4.1,4.1,0,0,1,2.264-.677,4.151,4.151,0,0,1,3.4,1.743l6,8.521a3.964,3.964,0,0,1-1.047,5.589,4.1,4.1,0,0,1-2.264.677M27.4,31.952a2.1,2.1,0,0,0-1.179.355,1.96,1.96,0,0,0-.861,1.291,1.987,1.987,0,0,0,.335,1.518l6,8.521a2.179,2.179,0,0,0,1.789.908,2.1,2.1,0,0,0,1.179-.353A1.972,1.972,0,0,0,35.52,42.9a2,2,0,0,0-.335-1.518l-6-8.521a2.189,2.189,0,0,0-1.789-.913Z" transform="translate(27.164 34.862)" fill="#f4f2ed" fill-rule="evenodd"/>
      <path id="Tracé_3" data-name="Tracé 3" d="M38.241,87.955a.986.986,0,0,1-.811-.428l-3.013-4.382a.983.983,0,1,1,1.622-1.112l1.414,2.059.061-.854a.975.975,0,0,1,.657-.861l2.861-1,.205-3.021A.975.975,0,0,1,41.9,77.5l2.861-1,.205-3.024a.976.976,0,0,1,.66-.859l2.859-1,.205-3.024a.974.974,0,0,1,.66-.859l2.859-1,.208-3.021a.971.971,0,0,1,.657-.861l2.861-1,.205-3.021a.975.975,0,0,1,.657-.861l2.861-1,.205-3.021a.977.977,0,0,1,.66-.861l2.859-1,.205-3.024a.976.976,0,0,1,.66-.859l2.859-1,.208-3.024a.971.971,0,0,1,.657-.859l2.859-1,.208-3.021a.977.977,0,0,1,.657-.861l2.861-1,.205-3.021a.977.977,0,0,1,.66-.861l2.859-1,.205-3.021a.977.977,0,0,1,.66-.861L82,27.7l.208-3.021a.971.971,0,0,1,.657-.861l2.859-1,.208-3.024a.974.974,0,0,1,.657-.859l2.861-1,.205-3.024a.971.971,0,0,1,.66-.859l2.859-1,.205-3.021a.977.977,0,0,1,.66-.861c.556-.19,1.228-.465,1.877-.727.448-.182.9-.363,1.332-.53,0-.355,0-.714-.006-1.081,0-.227-.009-.452-.009-.679,0-.279,0-.491.009-.653,0-.063.006-.132.006-.186-.041-.05-.1-.119-.149-.182-.1-.123-.236-.281-.4-.493L94.894,2.364l-65.53,51.8a.983.983,0,0,1-1.218-1.544L94.442.212a.981.981,0,0,1,1.38.162L98.244,3.43c.154.192.27.333.37.452a1.956,1.956,0,0,1,.6,1.68c0,.147-.011.34-.011.59,0,.216.006.437.011.653.009.6.019,1.228-.024,1.882a.977.977,0,0,1-.66.861c-.556.19-1.228.467-1.877.727-.452.182-.915.368-1.352.536L95.1,13.844a.973.973,0,0,1-.66.859l-2.859,1-.205,3.024a.974.974,0,0,1-.66.859l-2.859,1L87.645,23.6a.974.974,0,0,1-.657.861l-2.859,1-.208,3.021a.975.975,0,0,1-.657.861l-2.861,1L80.2,33.361a.974.974,0,0,1-.66.861l-2.859,1-.205,3.021a.977.977,0,0,1-.66.861l-2.859,1-.208,3.024a.971.971,0,0,1-.657.859l-2.859,1L69.021,48a.972.972,0,0,1-.657.859l-2.861,1L65.3,52.879a.974.974,0,0,1-.66.861l-2.859,1-.205,3.021a.977.977,0,0,1-.66.861l-2.859,1-.208,3.021a.971.971,0,0,1-.657.861l-2.859,1-.208,3.024a.974.974,0,0,1-.657.859l-2.861,1L50.4,72.4a.971.971,0,0,1-.66.859l-2.859,1-.205,3.021a.979.979,0,0,1-.66.861l-2.859,1-.208,3.021a.971.971,0,0,1-.657.861l-2.859,1-.208,3.021a.979.979,0,0,1-.722.88.94.94,0,0,1-.26.035Z" transform="translate(32.294 0)" fill="#f4f2ed" fill-rule="evenodd"/>
      <path id="Tracé_4" data-name="Tracé 4" d="M29.372,32.363a3.077,3.077,0,1,1,3.075-3.078,3.081,3.081,0,0,1-3.075,3.078m0-4.187a1.111,1.111,0,1,0,1.112,1.109,1.108,1.108,0,0,0-1.112-1.109" transform="translate(30.577 30.476)" fill="#f4f2ed" fill-rule="evenodd"/>
      <text id="Quincaillerie" transform="translate(0 41.862)" fill="#00373f" font-size="25" font-family="Poppins-Bold, Poppins" font-weight="700"><tspan x="0" y="0">Quincaillerie</tspan></text>
      <text id="MARCEAU" transform="translate(16 68.041)" fill="#e1d400" font-size="29" font-family="Reross-Quadratic, Reross"><tspan x="0" y="0">MARCE</tspan><tspan y="0" letter-spacing="-0.06em">A</tspan><tspan y="0">U</tspan></text>
    </g>
  </g>
</svg>
